<?xml version="1.0" encoding="UTF-8"?>
<svg width="60px" height="38px" viewBox="0 0 60 38" version="1.1" xmlns="http://www.w3.org/2000/svg" xmlns:xlink="http://www.w3.org/1999/xlink">
    <title>645 Ventures</title>
    <defs>
        <radialGradient cx="0%" cy="100%" fx="0%" fy="100%" r="188.221463%" gradientTransform="translate(0, 1), scale(0.6271, 1), rotate(-32.0926), translate(-0, -1)" id="radialGradient-1">
            <stop stop-color="#FF731D" offset="0%"></stop>
            <stop stop-color="#FF380E" offset="51.9203453%"></stop>
            <stop stop-color="#FF0000" offset="100%"></stop>
        </radialGradient>
    </defs>
    <g id="📑-Concept" stroke="none" stroke-width="1" fill="none" fill-rule="evenodd">
        <path d="M0.0180477319,25.628541 C0.0180477319,25.628541 2.39132448,26.0975929 2.55375406,26.4911389 L5.88807253,35.2406738 L8.38993937,28.7380122 C8.55236895,28.3444661 8.24555751,28.0721872 7.94551397,28.0721872 L7.81466791,28.0721872 L7.81466791,27.8754142 L9.66456043,27.8754142 L9.66456043,28.0721872 L9.47731521,28.0721872 C9.1953194,28.0721872 8.99679435,28.1545573 8.7847335,28.6670824 L5.53388579,37.6271186 L0.897874662,26.4202091 C0.685813812,25.9076841 0.485032795,25.825314 0.20529295,25.825314 L0.0180477319,25.825314 L0.0180477319,25.628541 Z M24.0057394,27.9165992 L24.0057394,28.1133723 L23.899709,28.1133723 C23.6741123,28.1133723 23.5252185,28.3604826 23.5252185,28.5892884 L23.5252185,37.3822964 L17.4386209,29.3466357 L17.4386209,36.4350403 C17.4386209,36.6684222 17.5875147,36.9109564 17.8131114,36.9109564 L17.9191418,36.9109564 L17.9191418,37.1077294 L16.6580565,37.1077294 L16.6580565,36.9109564 L16.764087,36.9109564 C16.9896836,36.9109564 17.1385774,36.6707103 17.1385774,36.4350403 L17.1385774,28.5915764 C17.1385774,28.3627706 16.9896836,28.1156603 16.764087,28.1156603 L16.6580565,28.1156603 L16.6580565,27.9188873 L18.0206603,27.9188873 L23.222919,34.7990786 L23.222919,28.5892884 C23.222919,28.3604826 23.0740252,28.1133723 22.8484286,28.1133723 L22.7491661,28.1133723 L22.7491661,27.9165992 L24.0057394,27.9165992 Z M15.6022642,27.7472829 L15.6022642,30.6805737 L15.4082511,30.6805737 L15.4082511,30.5730349 C15.4082511,30.3442291 15.3338042,28.2231991 13.7771873,28.2231991 L11.8348002,28.2231991 L11.8348002,32.0877295 L13.7771873,32.0877295 C14.5645196,32.0877295 14.5148884,31.0924242 14.5148884,31.0924242 L14.7089015,31.0924242 L14.7089015,33.3850586 L14.5148884,33.3850586 C14.5148884,33.3850586 14.5645196,32.3897532 13.7771873,32.3897532 L11.8348002,32.3897532 L11.8348002,36.7988415 L14.0388794,36.7988415 C15.5932404,36.7988415 15.6699432,34.6755234 15.6699432,34.4490057 L15.6699432,34.3414669 L15.8639563,34.3414669 L15.8639563,37.2747577 L15.6699432,37.2747577 C15.6699432,37.1283219 15.5458651,37.1077294 15.415019,37.1077294 L10.1563611,37.1077294 L10.1563611,36.9109564 L10.2623915,36.9109564 C10.4879882,36.9109564 10.636882,36.6707103 10.636882,36.4350403 L10.636882,28.5915764 C10.636882,28.3581945 10.4879882,28.1156603 10.2623915,28.1156603 L10.1563611,28.1156603 L10.1563611,27.9188873 L15.1533269,27.9188873 C15.284173,27.9188873 15.4082511,27.9005828 15.4082511,27.7472829 L15.6022642,27.7472829 Z M52.7557763,27.7472829 L52.7557763,30.6805737 L52.5617632,30.6805737 L52.5617632,30.5730349 C52.5617632,30.3442291 52.4873163,28.2231991 50.9306994,28.2231991 L48.9883123,28.2231991 L48.9883123,32.0877295 L50.9306994,32.0877295 C51.7180317,32.0877295 51.6684005,31.0924242 51.6684005,31.0924242 L51.8624136,31.0924242 L51.8624136,33.3850586 L51.6684005,33.3850586 C51.6684005,33.3850586 51.7180317,32.3897532 50.9306994,32.3897532 L48.9883123,32.3897532 L48.9883123,36.7988415 L51.1923915,36.7988415 C52.7467524,36.7988415 52.8234553,34.6755234 52.8234553,34.4490057 L52.8234553,34.3414669 L53.0174684,34.3414669 L53.0174684,37.2747577 L52.8234553,37.2747577 C52.8234553,37.1283219 52.6993771,37.1077294 52.5662751,37.1077294 L47.3076172,37.1077294 L47.3076172,36.9109564 L47.4136477,36.9109564 C47.6392443,36.9109564 47.7881381,36.6707103 47.7881381,36.4350403 L47.7881381,28.5915764 C47.7881381,28.3581945 47.6392443,28.1156603 47.4136477,28.1156603 L47.3076172,28.1156603 L47.3076172,27.9188873 L52.304583,27.9188873 C52.4354291,27.9188873 52.5617632,27.9005828 52.5617632,27.7472829 L52.7557763,27.7472829 Z M38.7214088,27.9211754 L38.7214088,28.1179484 L38.6153784,28.1179484 C38.3897817,28.1179484 38.2408879,28.3581945 38.2408879,28.5938645 L38.2408879,34.3025699 C38.2408879,35.8104004 37.3407573,37.2427249 35.6735981,37.2427249 C33.3747682,37.2427249 32.2806245,35.9568361 32.2806245,34.4558698 L32.2806245,28.5961526 C32.2806245,28.3627706 32.1317307,28.1202364 31.906134,28.1202364 L31.8001036,28.1202364 L31.8001036,27.9234634 L33.9613195,27.9234634 L33.9613195,28.1202364 L33.8552891,28.1202364 C33.6296924,28.1202364 33.4807986,28.3604826 33.4807986,28.5961526 L33.4807986,34.4558698 C33.4807986,35.9453958 34.3425778,36.9384131 35.6735981,36.9384131 C37.1422322,36.9384131 37.9408444,35.7280303 37.9408444,34.2385043 L37.9408444,28.5938645 C37.9408444,28.3604826 37.7919506,28.1179484 37.5663539,28.1179484 L37.4603235,28.1179484 L37.4603235,27.9211754 L38.7214088,27.9211754 Z M56.7556049,27.7861799 C57.624152,27.7861799 57.9490112,28.1339648 58.2671024,28.1293887 C58.5355624,28.1225245 58.5287945,27.7999083 58.5287945,27.7999083 L58.7228077,27.7999083 L58.7228077,29.8774652 L58.5287945,29.8774652 C58.5287945,28.8249584 57.7053668,28.0790514 56.7556049,28.0790514 C55.9615047,28.0790514 55.0884456,28.6945391 55.0884456,29.712725 C55.0884456,31.9550221 59.710921,31.7079118 59.5868428,34.7876383 C59.5236758,36.345806 57.9196836,37.2404368 56.5886634,37.2404368 C55.5080554,37.2404368 54.8583371,36.7324879 54.5650614,36.7324879 C54.3642804,36.7324879 54.1838031,36.8903639 54.1838031,37.2335726 L53.98979,37.2335726 L53.98979,34.343755 L54.1838031,34.343755 C54.1950829,36.4396164 55.6208537,36.9475653 56.5818955,36.9475653 C57.5745207,36.9475653 58.3799008,36.1375927 58.3799008,34.9775471 C58.3799008,32.4629711 54.0890525,32.7787231 54.0890525,30.0856785 C54.0890525,28.8684315 55.1696604,27.7861799 56.7556049,27.7861799 Z M24.7795359,27.749571 C24.7795359,27.9005828 24.9036141,27.9211754 25.0367161,27.9211754 L30.7713829,27.9211754 C30.9022289,27.9211754 31.0285631,27.9028709 31.0285631,27.749571 L31.2225762,27.749571 L31.2225762,30.6828617 L31.0285631,30.6828617 L31.0285631,30.575323 C31.0285631,30.3465172 30.9541162,28.2254871 29.3974993,28.2254871 L28.5041366,28.2254871 L28.5041366,36.4350403 C28.5041366,36.6684222 28.6530304,36.9109564 28.878627,36.9109564 L28.9846574,36.9109564 L28.9846574,37.1077294 L26.8234415,37.1077294 L26.8234415,36.9109564 L26.929472,36.9109564 C27.1550686,36.9109564 27.3039624,36.6707103 27.3039624,36.4350403 L27.3039624,28.2254871 L26.4105997,28.2254871 C24.8562388,28.2254871 24.7795359,30.3488052 24.7795359,30.575323 L24.7795359,30.6828617 L24.5855228,30.6828617 L24.5855228,27.749571 L24.7795359,27.749571 Z M42.7731246,27.9188873 C44.4899151,27.9188873 45.7893518,28.8569912 45.7893518,30.300756 C45.7893518,31.4539374 44.9636681,32.2776384 43.7657499,32.5682218 C45.1960326,32.8153321 45.3088309,35.089662 46.0713476,36.4327522 C46.2021937,36.6661342 46.4774216,36.9086683 46.7030182,36.9086683 L46.8902634,36.9086683 L46.8902634,37.1054414 L45.6900893,37.1054414 C45.2907832,37.1077294 45.0403709,36.8537549 44.835078,36.4739373 C44.1470082,35.2269455 44.0973769,32.6849127 42.1437099,32.6849127 L41.0563341,32.6849127 L41.0563341,36.4350403 C41.0563341,36.6684222 41.2052279,36.9109564 41.4308245,36.9109564 L41.536855,36.9109564 L41.536855,37.1077294 L39.3756391,37.1077294 L39.3756391,36.9109564 L39.4816695,36.9109564 C39.7072661,36.9109564 39.8561599,36.6707103 39.8561599,36.4350403 L39.8561599,28.5915764 C39.8561599,28.3581945 39.7050102,28.1156603 39.4816695,28.1156603 L39.3756391,28.1156603 L39.3756391,27.9188873 L42.7731246,27.9188873 Z M41.0540781,28.2254871 L41.0540781,32.380601 L42.5791115,32.380601 C43.5604569,32.380601 44.5914336,31.8177386 44.5914336,30.303044 C44.5914336,28.7883495 43.5604569,28.2254871 42.5791115,28.2254871 L41.0540781,28.2254871 Z M58.7724389,0.219653596 L58.7724389,5.77505913 L48.3927371,5.77505913 L48.3927371,8.95546016 C54.2695298,8.58937084 59.9635892,9.79517756 59.9996847,17.3983953 C60.0357802,21.784603 56.9721777,26.3172465 51.1337364,26.3172465 C46.3398076,26.3172465 42.8453155,23.1734544 42.6287427,17.9841382 L48.1784203,17.9841382 C48.2145158,19.665861 49.2951237,20.5421874 50.9893545,20.5421874 C52.7557763,20.5421874 53.8363842,19.4828164 53.8724797,17.3983953 C53.8002888,15.8631082 53.0084445,15.0599997 51.6007215,14.6573014 C49.0424555,13.8908019 44.9343405,14.1035913 43.0596323,14.1402003 L43.0596323,0.219653596 L58.7724389,0.219653596 Z M15.7827415,0 L10.4496368,9.21172269 C15.7827415,8.80902443 19.3155851,12.0992523 19.3155851,17.3983953 C19.3155851,23.393108 15.0630882,26.2074197 9.693888,26.2074197 C4.25249683,26.2074197 0,23.393108 0,17.3983953 C0,15.6434546 0.360954638,13.8885138 1.33327619,12.3898357 L8.61328005,0 L15.7827415,0 Z M38.0807143,0.217365538 L38.0807143,15.6045576 L40.2419302,15.6045576 L40.2419302,20.9403095 L38.0807143,20.9403095 L38.0807143,25.8047214 L32.0978912,25.8047214 L32.0978912,20.9425976 L21.1068225,20.9425976 L21.1068225,18.0916769 L31.1616651,0.217365538 L38.0807143,0.217365538 Z M9.69163203,14.1813853 C7.53041613,14.1813853 6.44755222,15.6800635 6.44755222,17.3983953 C6.44755222,19.2631628 7.74473295,20.6520142 9.69163203,20.6520142 C11.710722,20.6520142 12.8274254,19.2631628 12.8274254,17.3983953 C12.8274254,15.6800635 11.8190084,14.1813853 9.69163203,14.1813853 Z M32.2512969,7.85948024 L28.3146354,15.6068456 L32.3505594,15.6068456 L32.3505594,11.7697719 L32.3234878,7.85948024 L32.2512969,7.85948024 Z" id="645-Ventures" fill="url(#radialGradient-1)"></path>
    </g>
</svg>