<?xml version="1.0" encoding="UTF-8"?>
<svg width="168px" height="168px" viewBox="0 0 168 168" version="1.1" xmlns="http://www.w3.org/2000/svg" xmlns:xlink="http://www.w3.org/1999/xlink">
    <title>645 Location</title>
    <g id="📑-Concept" stroke="none" stroke-width="1" fill="none" fill-rule="evenodd">
        <path d="M84,0 C130.391919,0 168,37.608081 168,84 C168,130.391919 130.391919,168 84,168 C37.608081,168 0,130.391919 0,84 C0,37.608081 37.608081,0 84,0 Z M84,2 C38.7126505,2 2,38.7126505 2,84 C2,129.287349 38.7126505,166 84,166 C129.287349,166 166,129.287349 166,84 C166,38.7126505 129.287349,2 84,2 Z M117.543931,42.1383831 L101.196621,132.912831 C99.6290115,141.61756 87.7599988,143.076171 84.1313761,135.010019 L73.0691218,110.419471 C71.8331416,107.671981 68.977874,106.023491 65.9804878,106.326846 L39.1533212,109.041927 C30.3535176,109.932523 25.6822054,98.9243512 32.436917,93.2143969 L102.87624,33.6699876 C109.318113,28.2244844 119.038938,33.8368053 117.543931,42.1383831 Z M104.16739,35.1973812 L33.7280672,94.7417905 C28.4744026,99.182866 32.1076455,107.744778 38.9519372,107.052091 L65.7791038,104.337011 C69.632886,103.946983 73.3039443,106.06647 74.8930618,109.598957 L85.9553161,134.189505 C88.7775782,140.463178 98.0090325,139.328703 99.2282844,132.558359 L115.575594,41.783911 C116.738378,35.3271283 109.177736,30.9619898 104.16739,35.1973812 Z" id="645-Location" fill="#FFFFFF" fill-rule="nonzero"></path>
    </g>
</svg>