<?xml version="1.0" encoding="UTF-8"?>
<svg width="167px" height="166px" viewBox="0 0 167 166" version="1.1" xmlns="http://www.w3.org/2000/svg" xmlns:xlink="http://www.w3.org/1999/xlink">
    <title>645 Location 2</title>
    <g id="📑-Concept" stroke="none" stroke-width="1" fill="none" fill-rule="evenodd">
        <path d="M83.5,0 C129.339634,0 166.5,37.1603658 166.5,83 C166.5,128.839634 129.339634,166 83.5,166 C37.6603658,166 0.5,128.839634 0.5,83 C0.5,37.1603658 37.6603658,0 83.5,0 Z M116.059763,40.9611471 C117.388658,33.5819668 108.747925,28.5932371 103.021815,33.4336844 L32.5824921,92.9780937 C26.578304,98.0536086 30.7305815,107.83865 38.5526292,107.047009 L65.3797958,104.331928 C68.80538,103.985237 72.0685429,105.869225 73.4810918,109.009214 L84.5433461,133.599762 C87.7687885,140.769674 98.319022,139.473131 99.7124528,131.735595 Z" id="645-Location" fill="#FFFFFF" fill-rule="nonzero"></path>
    </g>
</svg>